<?xml version="1.0" encoding="utf-8"?>
<!-- Generator: Adobe Illustrator 24.0.0, SVG Export Plug-In . SVG Version: 6.00 Build 0)  -->
<svg version="1.1" id="图层_1" xmlns="http://www.w3.org/2000/svg" xmlns:xlink="http://www.w3.org/1999/xlink" x="0px" y="0px"
	 viewBox="0 0 230 180" style="enable-background:new 0 0 230 180;" xml:space="preserve">
<style type="text/css">
	.st0{fill:#4F9AF4;}
</style>
<g>
	<polygon class="st0" points="17,61.6 7.8,61.6 7.8,118.5 44.1,118.5 44.1,110 17,110 	"/>
	<path class="st0" d="M90,64.4c-4.2-2.5-9-3.8-14.2-3.8c-8,0-14.6,2.7-19.7,8c-5.1,5.3-7.6,12.7-7.6,22.1c0,4.9,1.1,9.7,3.2,14.1
		c2.2,4.5,5.4,8,9.6,10.6c4.2,2.6,9,3.9,14.4,3.9c4.9,0,9.6-1.2,13.8-3.5c4.3-2.3,7.6-5.8,10-10.4c2.3-4.5,3.5-9.7,3.5-15.4
		c0-5.6-1.1-10.7-3.3-15.2C97.5,70.4,94.2,66.9,90,64.4z M93.5,90.1c0,6.8-1.7,12-5,15.7c-3.4,3.7-7.5,5.4-12.8,5.4
		c-5.1,0-9.3-1.8-12.7-5.4c-3.4-3.6-5.1-8.6-5.1-14.9c0-7.9,1.8-13.6,5.2-17c3.5-3.3,7.7-5,12.6-5c3.4,0,6.5,0.9,9.3,2.6
		c2.7,1.7,4.8,4.2,6.2,7.3C92.8,82,93.5,85.8,93.5,90.1z"/>
	<path class="st0" d="M136,96.9h16.1v8.8c-1.4,1.2-3.5,2.3-6.2,3.4c-2.9,1.2-5.8,1.7-8.8,1.7c-3.4,0-6.7-0.8-9.8-2.3
		c-3-1.5-5.3-3.8-6.9-6.9c-1.6-3.1-2.4-7.1-2.4-11.8c0-3.8,0.7-7.4,2-10.7c0.8-1.9,1.9-3.6,3.3-5.1c1.4-1.5,3.2-2.8,5.5-3.7
		c2.3-1,5.1-1.4,8.2-1.4c2.6,0,5,0.5,7.2,1.4c2.1,0.9,3.7,2.1,4.8,3.5c1.1,1.5,2.1,3.6,2.9,6.3l0.3,0.9l8.4-2.3l-0.2-1
		c-1-3.8-2.4-7-4.3-9.4c-1.9-2.4-4.6-4.3-8-5.7c-3.3-1.3-7.1-2-11.1-2c-5.6,0-10.6,1.2-15,3.5c-4.4,2.3-7.8,6-10.1,10.8
		c-2.3,4.7-3.4,9.9-3.4,15.4c0,5.5,1.2,10.6,3.5,15.1c2.3,4.5,5.8,8,10.4,10.4c4.5,2.4,9.6,3.6,15.2,3.6c4.1,0,8.1-0.7,12-2.2
		c3.9-1.5,7.7-3.7,11.3-6.6l0.4-0.3V88.5l-25.2,0V96.9z"/>
	<path class="st0" d="M218.9,74.9c-2.2-4.5-5.5-8-9.7-10.5c-4.2-2.5-9-3.8-14.2-3.8c-8,0-14.6,2.7-19.7,8c-5,5.3-7.6,12.7-7.6,22.1
		c0,4.9,1.1,9.7,3.2,14.1c2.2,4.5,5.4,8,9.6,10.6c4.2,2.6,9,3.9,14.4,3.9c4.9,0,9.6-1.2,13.8-3.5c4.3-2.3,7.6-5.8,10-10.4
		c2.3-4.5,3.5-9.7,3.5-15.4C222.2,84.5,221.1,79.4,218.9,74.9z M212.7,90.1c0,6.8-1.7,12-5,15.7c-3.4,3.7-7.5,5.4-12.8,5.4
		c-5.1,0-9.3-1.8-12.7-5.4c-3.4-3.6-5.1-8.6-5.1-14.9c0-7.9,1.8-13.6,5.2-17c3.5-3.3,7.7-5,12.6-5c3.4,0,6.5,0.9,9.3,2.6
		c2.7,1.7,4.8,4.2,6.2,7.3C212,82,212.7,85.8,212.7,90.1z"/>
</g>
</svg>
