<svg width="154" height="122" viewBox="0 0 154 122" fill="none" xmlns="http://www.w3.org/2000/svg">
<path opacity="0.3" d="M136.304 80.9534C136.304 80.9534 132.141 74.3172 140.467 60.6099C148.793 46.9025 148.949 2.7181 109.842 15.1832C70.7345 27.6482 51.7058 34.9205 26.501 19.7599C-22.676 -9.82017 11.93 80.9534 11.93 80.9534H136.304Z" fill="#CCE9FF"/>
<path opacity="0.5" d="M40.3516 0.609375L50.1026 23.4885L57.2296 18.6131L61.3596 24.6144L62.105 14.4907L70.7303 9.23479L40.3516 0.609375Z" fill="#CCE9FF"/>
<path opacity="0.1" d="M58.8094 17.5304L50.1026 23.4888L57.2296 18.6134L61.3596 24.6147L62.105 14.491L48.361 6.30566L58.8094 17.5304Z" fill="#0B4870"/>
<path opacity="0.1" d="M61.9224 16.9723L48.361 6.30566L62.105 14.491L61.9224 16.9723Z" fill="#0B4870"/>
<path d="M64.2928 31.7686C64.2161 31.3228 64.1185 30.8784 64.0031 30.4468L64.6717 30.2676C64.7928 30.7195 64.8944 31.1849 64.9749 31.651L64.2928 31.7686Z" fill="#CCE9FF"/>
<path d="M56.2188 47.3095C55.2139 47.2422 54.2526 46.9218 53.4387 46.382L53.8214 45.8054C54.5349 46.2782 55.3799 46.5594 56.2648 46.6186L56.2188 47.3095ZM59.0941 46.7451L58.7886 46.1239C59.5085 45.77 60.2052 45.2214 60.8592 44.4934L61.3742 44.9557C60.6607 45.75 59.8935 46.3523 59.0941 46.7451ZM51.5125 44.1716C51.1216 43.3806 50.9155 42.5109 50.9159 41.6569C50.9159 41.587 50.9173 41.5166 50.9202 41.4467L50.9284 41.2966L51.6186 41.3473L51.6119 41.4734C51.6094 41.5355 51.608 41.5964 51.608 41.6569C51.6077 42.4056 51.7892 43.1691 52.133 43.8654L51.5125 44.1716ZM78.2932 44.0137L78.2899 43.3216C79.1916 43.3172 80.1195 43.2803 81.0472 43.2121L81.0979 43.9024C80.1546 43.9717 79.2109 44.0092 78.2932 44.0137ZM75.4857 43.9228L75.0435 43.8887C74.1928 43.8181 73.4217 43.722 72.6867 43.595L72.8043 42.9129C73.5196 43.0366 74.2705 43.1299 75.1011 43.1991L75.5338 43.2319L75.4857 43.9228ZM83.8868 43.6082L83.7935 42.9221C84.6838 42.801 85.6014 42.6494 86.5208 42.4723L86.652 43.1516C85.7201 43.3313 84.7899 43.485 83.8868 43.6082ZM69.9361 42.9085C69.1226 42.6317 68.36 42.2938 67.6692 41.9036C67.5606 41.8427 67.4525 41.7792 67.3453 41.7147L67.7029 41.1219C67.8038 41.1832 67.9053 41.2425 68.0083 41.3004C68.6627 41.6699 69.3861 41.9903 70.1591 42.2537L69.9361 42.9085ZM63.0285 42.6325L62.4282 42.2879C62.8768 41.5077 63.2607 40.6773 63.57 39.8197L64.2211 40.0542C63.8981 40.95 63.497 41.8174 63.0285 42.6325ZM89.3876 42.5559L89.2248 41.8833C90.0904 41.6734 90.9914 41.4349 91.902 41.1742L92.0926 41.8399C91.1727 42.1029 90.2628 42.3437 89.3876 42.5559ZM94.7663 41.0231L94.5528 40.3647C95.4326 40.0797 96.3083 39.781 97.179 39.4717L97.4102 40.124C96.534 40.4353 95.6523 40.7361 94.7663 41.0231ZM65.0345 40.1111C64.3977 39.6471 63.7138 39.1603 62.9736 38.7551L62.7421 38.6324L63.0592 38.0173C63.1416 38.0595 63.2241 38.1035 63.3057 38.1481C64.0823 38.5729 64.8159 39.0953 65.4422 39.5515L65.0345 40.1111ZM52.5887 39.0701L52.1047 38.5752C52.7141 37.9786 53.5473 37.5314 54.6521 37.2084L54.8848 37.8613C53.8674 38.1592 53.1079 38.5618 52.5887 39.0701ZM60.2139 37.7187C59.427 37.5427 58.6198 37.4532 57.8147 37.4532L57.5342 37.4568L57.5172 36.7646C58.4699 36.7414 59.4317 36.8339 60.3651 37.0434L60.2139 37.7187ZM64.9521 37.3109L64.2707 37.1898C64.4292 36.2952 64.5116 35.3833 64.5165 34.4795L65.2087 34.483C65.2038 35.4258 65.1176 36.3773 64.9521 37.3109Z" fill="#CCE9FF"/>
<path d="M100.06 39.1474L99.8141 38.5005C100.245 38.3362 100.675 38.1695 101.105 38.002L101.356 38.6469C100.925 38.8152 100.493 38.9824 100.06 39.1474Z" fill="#CCE9FF"/>
<path d="M128.842 52.5962C128.489 52.5962 128.188 52.3285 128.153 51.9705C128.116 51.5902 128.395 51.252 128.775 51.215C132.958 50.8098 136.807 48.8128 139.612 45.5921C139.863 45.3031 140.3 45.2743 140.588 45.5248C140.876 45.7756 140.907 46.2129 140.655 46.5012C137.618 49.9901 133.446 52.1537 128.909 52.5927C128.886 52.5953 128.864 52.5962 128.842 52.5962Z" fill="#CCE9FF"/>
<path d="M113.415 55.5309L89.3003 69.7515L65.1859 55.5309C65.1859 55.5191 65.1859 55.5035 65.1898 55.4917C65.2094 55.4014 66.5405 54.2903 68.5703 52.6414C68.5899 52.6258 68.6055 52.61 68.6253 52.5942C75.284 47.1879 89.3003 36.1162 89.3003 36.1162C89.3003 36.1162 103.317 47.1879 109.975 52.5942C112.037 54.2668 113.391 55.3975 113.411 55.4917C113.415 55.5034 113.415 55.5191 113.415 55.5309Z" fill="#00AEF0"/>
<path opacity="0.4" d="M113.415 55.5309L89.3003 69.7515L65.1859 55.5309C65.1859 55.5191 65.1859 55.5035 65.1898 55.4917C65.2094 55.4014 66.5405 54.2903 68.5703 52.6414C68.5899 52.6258 68.6055 52.61 68.6253 52.5942C75.284 47.1879 89.3003 36.1162 89.3003 36.1162C89.3003 36.1162 103.317 47.1879 109.975 52.5942C112.037 54.2668 113.391 55.3975 113.411 55.4917C113.415 55.5034 113.415 55.5191 113.415 55.5309Z" fill="#0B4870"/>
<path d="M99.2175 24.3389H73.1995C70.968 24.3389 69.1588 26.148 69.1588 28.3796V67.7183C69.1588 69.9501 70.968 71.759 73.1995 71.759H105.801C108.033 71.759 109.842 69.9499 109.842 67.7183V34.9632L99.2175 24.3389Z" fill="#CCE9FF"/>
<path d="M99.2176 30.9223C99.2176 33.1541 101.027 34.963 103.258 34.963H109.842L99.2176 24.3389V30.9223Z" fill="#CCE9FF"/>
<path d="M85.7286 30.9883H76.7525C75.9574 30.9883 75.313 31.6327 75.313 32.4278V41.4039C75.313 42.199 75.9574 42.8434 76.7525 42.8434H85.7286C86.5237 42.8434 87.1681 42.199 87.1681 41.4039V32.4278C87.1681 31.6327 86.5237 30.9883 85.7286 30.9883Z" fill="#00AEF0"/>
<path d="M98.0251 46.1377H76.4869C75.8465 46.1377 75.3273 46.6569 75.3273 47.2974C75.3273 47.9378 75.8465 48.4572 76.4869 48.4572H98.0251C98.6656 48.4572 99.1848 47.938 99.1848 47.2974C99.185 46.6569 98.6658 46.1377 98.0251 46.1377Z" fill="#00AEF0"/>
<path d="M98.0251 51.916H76.4869C75.8465 51.916 75.3273 52.4352 75.3273 53.0757C75.3273 53.7163 75.8465 54.2355 76.4869 54.2355H98.0251C98.6656 54.2355 99.1848 53.7163 99.1848 53.0757C99.185 52.4352 98.6658 51.916 98.0251 51.916Z" fill="#00AEF0"/>
<path d="M88.2435 57.5205H76.4869C75.8465 57.5205 75.3273 58.0397 75.3273 58.6802C75.3273 59.3206 75.8465 59.84 76.4869 59.84H88.2435C88.884 59.84 89.4034 59.3208 89.4034 58.6802C89.4034 58.0397 88.884 57.5205 88.2435 57.5205Z" fill="#00AEF0"/>
<path d="M113.417 55.5303V78.6651C113.417 80.2821 112.095 81.6036 110.479 81.6036H68.1192C66.5022 81.6036 65.1885 80.2821 65.1885 78.6651V55.5303L89.3028 69.7486L113.417 55.5303Z" fill="#00AEF0"/>
<path opacity="0.2" d="M112.602 80.683L97.0813 65.1622L89.3028 69.7485L81.521 65.1602L65.9991 80.682C66.5334 81.2463 67.2834 81.6035 68.1192 81.6035H110.479C111.314 81.6038 112.066 81.247 112.602 80.683Z" fill="#0B4870"/>
<path opacity="0.5" d="M126.032 18.5125C119.09 19.1939 113.545 24.9153 113.048 31.873C112.801 35.3357 113.783 38.5517 115.589 41.1536C116.27 42.1339 116.382 43.4004 115.924 44.5025L114.779 47.2586L119.459 46.0455C120.221 45.8478 121.027 45.9095 121.75 46.223C123.919 47.1639 126.362 47.5927 128.929 47.3442C135.743 46.6846 141.256 41.1821 141.914 34.3686C142.797 25.2272 135.176 17.6151 126.032 18.5125Z" fill="#2684FC"/>
<path d="M130.818 37.886L124.439 35.9229L130.818 28.5629L122.476 35.9229L117.57 33.9597L133.272 25.6182L130.818 37.886ZM124.439 40.8307V37.3952L126.403 38.3768L124.439 40.8307V40.8307Z" fill="#2684FC"/>
<path d="M41.1782 7.39388L44.3412 14.6518C44.502 15.0218 44.3318 15.452 43.9614 15.612L43.8487 15.6607C43.4766 15.8214 43.045 15.6479 42.8875 15.2744L39.8375 7.96773C39.6761 7.5847 39.8669 7.14443 40.2567 7.00044C40.6196 6.86635 41.024 7.03896 41.1782 7.39388Z" fill="#CCE9FF"/>
<path d="M153.441 85.5369C153.441 88.068 151.389 90.1197 148.858 90.1197H8.64878C6.11781 90.1197 4.06598 88.0679 4.06598 85.5369C4.06598 83.0059 6.11781 80.9541 8.64878 80.9541H148.858C151.389 80.9541 153.441 83.0059 153.441 85.5369Z" fill="#CCE9FF"/>
<path d="M58.5698 74.9175C58.4011 74.7691 58.217 74.6158 58.0125 74.452C55.9515 72.8002 43.5603 65.9116 40.0674 64.3058C39.8285 64.1961 39.5184 64.2154 39.1922 64.3342C38.9192 64.3847 38.6255 64.5181 38.3081 64.7655C35.5632 66.9039 20.3151 77.0435 20.6218 77.6023C21.4187 79.0544 29.9522 75.6412 35.184 72.744C36.7857 71.857 38.0565 71.1835 39.4488 70.4408C40.3051 71.0629 42.0998 72.574 44.1484 74.2217C47.2117 76.6865 50.8068 79.443 52.5609 79.9289C54.8367 80.5579 56.4936 80.5272 57.7261 79.6732C60.191 77.9603 61.0706 77.0961 58.5698 74.9175Z" fill="#0B4870"/>
<path d="M57.7261 79.6732C56.4936 80.5272 54.8367 80.558 52.5609 79.9289C50.8068 79.443 47.2117 76.6866 44.1484 74.2217C49.559 74.2729 55.8083 74.8864 58.0637 74.9121C58.2325 74.9171 58.4012 74.9171 58.57 74.9171C61.0706 77.0958 60.191 77.96 57.7261 79.6732Z" fill="#0B4870"/>
<path d="M52.354 64.9693C51.6979 64.422 50.1088 62.8394 49.2874 62.0137C48.8113 61.5351 48.7083 60.7643 49.1205 60.2297C49.159 60.1797 49.2017 60.1312 49.249 60.0847C49.5954 59.7438 49.8154 60.0965 50.1757 60.3365C51.8469 61.4501 55.2439 62.9784 56.9103 63.4525C58.6578 63.9496 59.2391 65.1922 57.9934 66.9842C57.2893 67.9969 54.258 66.558 52.354 64.9693Z" fill="#CCE9FF"/>
<path d="M67.6574 64.3555C67.6574 64.381 67.6524 64.4067 67.6524 64.4322C67.5705 65.5828 67.4631 66.713 67.3507 67.787C66.9365 71.7658 66.4198 74.9108 66.4198 74.9108H56.151C54.182 74.9108 52.6786 73.1619 52.9802 71.2185C53.2564 69.4234 53.5581 67.0914 53.7575 64.4934C53.778 64.2121 53.7985 63.9309 53.819 63.6445C53.9468 61.7677 54.0082 59.7783 53.9621 57.7634V57.7429C53.9364 56.5668 53.8752 55.3802 53.7678 54.2041C53.824 53.4779 52.6274 50.2305 56.6726 50.0669L62.5332 49.8215C64.63 49.7294 66.292 51.2073 67.0796 53.0841C67.1562 53.2632 67.2229 53.4574 67.2893 53.6672C68.0155 56.0606 67.9643 60.2949 67.6574 64.3555Z" fill="#CCE9FF"/>
<path opacity="0.1" d="M67.6574 64.3554C67.6574 64.3809 67.6523 64.4066 67.6523 64.4321L65.8879 63.6343L64.9777 52.9512L67.2892 53.6671C68.0154 56.0605 67.9642 60.2948 67.6574 64.3554Z" fill="#0B4870"/>
<path opacity="0.1" d="M67.6591 64.3541C67.5755 65.5295 67.4659 66.6894 67.3509 67.7866C66.9016 67.5776 66.4679 67.3477 66.0762 67.1022C65.6269 66.8254 64.7805 66.2141 63.9811 65.6237L62.2466 64.3333C62.304 64.5109 62.2728 64.6519 62.1682 64.7251V64.7303C62.1054 64.7774 62.0166 64.7931 61.9173 64.7878L54.1903 63.9674C54.0075 63.936 53.8873 63.816 53.8195 63.6435C53.9449 61.768 54.0075 59.7773 53.9605 57.7607V57.7451L60.9613 61C61.0345 61.0156 61.1076 61.0314 61.1808 61.0522C61.7921 61.2194 62.2466 61.9352 62.6175 62.5255C62.8107 62.5307 63.0094 62.7031 63.2654 62.8234C64.3522 63.3457 66.0814 63.9256 67.6591 64.3541Z" fill="#0B4870"/>
<path d="M48.1001 56.9326C48.1056 56.9831 48.118 57.035 48.1369 57.0884L50.5495 62.9204C50.6638 63.1919 50.9796 63.4151 51.2531 63.4198L61.4452 63.7206C61.5454 63.718 61.6327 63.6941 61.6938 63.646L61.6939 63.64C61.7892 63.5562 61.8122 63.4136 61.7423 63.2443L59.3298 57.406C59.2219 57.1422 58.9062 56.9189 58.6328 56.9142L48.4408 56.6134C48.2203 56.6081 48.0907 56.7396 48.1001 56.9326Z" fill="#3C8CF8"/>
<path d="M21.7197 76.9116C21.8956 76.9899 22.1211 77.4338 22.1067 77.6258C22.0588 78.2646 21.5542 78.7373 21.2588 79.0254C20.9444 79.3321 17.7963 78.2756 16.2092 77.3673C15.3519 76.8768 18.3536 77.2574 19.0661 77.2398C19.6103 77.2263 20.6391 77.0778 20.9543 76.9463C21.2864 76.8079 21.4409 76.7876 21.5898 76.8537L21.7197 76.9116Z" fill="#0B4870"/>
<path d="M65.1575 80.8409C65.1575 82.3939 53.7955 83.6528 39.78 83.6528C25.7642 83.6528 14.4025 82.3939 14.4025 80.8409C14.4025 79.288 25.7644 78.0293 39.78 78.0293C53.7955 78.0291 65.1575 79.288 65.1575 80.8409Z" fill="#CCE9FF"/>
<path d="M22.7398 81.0072C22.8658 81.1529 22.8809 81.6506 22.7862 81.8182C22.471 82.3759 21.8132 82.5887 21.4232 82.7239C21.0082 82.8675 18.6089 80.5719 17.5593 79.0744C16.9924 78.2656 19.5466 79.8874 20.1988 80.1749C20.697 80.3943 21.6914 80.6977 22.0324 80.7128C22.3917 80.7288 22.5404 80.7761 22.6469 80.8995L22.7398 81.0072Z" fill="#0B4870"/>
<path d="M66.0297 76.8645C66.033 76.8526 66.0366 76.8404 66.0397 76.8285C66.2474 76.1014 66.4006 75.2311 66.4996 74.1809C61.5312 74.3067 54.012 73.67 52.967 71.2959C52.5422 72.1175 52.1763 73.3496 52.087 74.6056C47.8421 74.7896 42.4716 75.1598 38.9617 75.7234C35.5306 76.302 21.4363 80.4733 21.6545 81.0723C22.2068 82.5879 25.5078 82.0337 31.4926 81.6692C33.9225 81.5214 39.3862 80.7399 42.0063 80.0106C45.4645 80.0276 59.641 81.3394 61.1093 81.0489C64.6879 80.3408 65.0619 79.7843 65.9294 77.1931C65.9393 77.1638 65.9461 77.1374 65.9553 77.1086C65.9808 77.0293 66.0056 76.9478 66.0297 76.8645Z" fill="#0B4870"/>
<path d="M60.4125 59.5229C61.3258 59.7064 61.9956 61.1213 62.4843 61.5362C63.0756 62.0384 62.434 62.4999 61.603 62.6465C60.8588 62.7778 59.8487 62.6766 59.3958 62.3182C59.0127 62.0152 58.5333 61.6592 58.1126 60.4713C57.7689 59.5017 59.2202 59.2833 60.4125 59.5229Z" fill="#FFE3CA"/>
<path d="M49.5916 58.9006C50.5049 59.0842 51.1749 60.499 51.6634 60.9139C52.2547 61.4162 51.613 61.8776 50.7823 62.0242C50.0381 62.1555 50.2036 62.5819 49.7506 62.2235C49.3676 61.9204 48.8881 61.5645 48.4673 60.3767C48.1238 59.407 48.3993 58.6611 49.5916 58.9006Z" fill="#FFE3CA"/>
<path d="M71.9789 64.4884C71.9768 64.4409 71.9756 64.3928 71.9706 64.3472C71.8847 63.1714 71.3556 61.6723 70.9438 60.4637C70.3053 58.5895 69.3439 55.5442 67.423 51.9819C66.5074 50.2841 65.1883 49.7316 62.9606 49.8255C62.0847 49.8624 64.2424 53.8556 64.7168 54.9542C65.2244 56.1296 67.0233 58.1464 68.3476 61.4296C68.4644 61.7191 69.2585 63.3855 69.3885 63.7205C67.6418 63.4032 63.8778 61.641 62.6131 61.1427C62.2103 60.9839 61.9671 60.7201 61.6542 61.0918C61.0023 61.8662 61.4379 62.6716 61.4379 62.6716C61.4379 62.6716 64.6769 64.6659 65.719 65.2123C67.9152 66.3638 71.1817 67.1316 71.6563 65.9931C71.7097 65.8649 71.7562 65.7407 71.7963 65.62C71.9482 65.3181 71.9977 64.9289 71.9789 64.4884Z" fill="#CCE9FF"/>
<path d="M57.6321 50.0248C57.8407 50.8946 58.5932 51.4641 59.6423 51.4201C60.6915 51.3758 62.1816 50.7118 62.8604 49.8047L57.6321 50.0248Z" fill="#FFE3CA"/>
<path d="M55.27 39.2616C53.3075 40.9382 54.8738 46.5901 55.7205 46.5037L57.521 45.2403C58.9034 45.0221 58.4935 36.5079 55.27 39.2616Z" fill="#3C8CF8"/>
<path d="M58.3583 50.3342C58.7667 48.324 57.7987 45.9225 57.4209 44.1069C57.1864 42.9807 57.8422 41.842 59.0125 41.5914C60.2884 41.3181 61.5754 42.1255 61.8378 43.3327C61.9683 43.9331 62.5187 46.1587 61.6109 50.3342" fill="#FFE3CA"/>
<path d="M54.8733 43.7149C54.9729 46.9871 57.8379 49.6476 59.3305 49.6476C60.6858 49.6476 63.9886 46.9756 63.889 43.7034C63.7894 40.4312 61.587 37.7873 58.9699 37.7979C56.3527 37.8086 54.7736 40.4426 54.8733 43.7149Z" fill="#FFE3CA"/>
<path d="M63.7453 43.4621C64.8989 44.1352 65.3119 36.7272 62.4701 37.9949C60.1366 39.0361 62.3629 43.6805 63.7453 43.4621Z" fill="#3C8CF8"/>
<path d="M60.6306 41.2149C56.6935 43.9316 54.5773 41.5481 53.2877 40.0713C53.2877 40.0713 53.8968 40.0585 54.5173 39.6128C54.5173 39.6128 53.9009 39.2579 53.1833 38.8546C53.1833 38.8546 53.9086 38.6881 54.653 38.2806C54.653 38.2806 55.0046 38.2979 54.093 37.8129C54.093 37.8129 55.9708 36.8564 58.4523 36.2619C60.138 35.858 64.3799 35.6788 63.6694 38.2627C63.6126 38.4691 63.5358 38.6648 63.4458 38.8487C62.9045 39.9541 62.0351 40.2458 60.6306 41.2149Z" fill="#3C8CF8"/>
<path d="M62.9862 43.1989C62.7371 44.1868 62.9679 45.1016 63.5021 45.2421C64.036 45.3826 64.6709 44.6956 64.92 43.7079C65.1691 42.72 64.9382 41.8054 64.4043 41.6647C63.8702 41.5242 63.2353 42.211 62.9862 43.1989Z" fill="#FFE3CA"/>
<path d="M61.9942 48.0752C61.9942 48.0752 61.3043 49.3853 60.406 49.6489C59.5078 49.9126 59.1057 50.0679 58.4557 49.421C58.4557 49.421 60.817 49.6576 61.9942 48.0752Z" fill="#FCD2B1"/>
<path d="M103.96 38.0778C108.146 38.0778 111.538 34.6851 111.538 30.4999C111.538 26.3147 108.146 22.9219 103.96 22.9219C99.7751 22.9219 96.3823 26.3147 96.3823 30.4999C96.3823 34.6851 99.7751 38.0778 103.96 38.0778Z" fill="#2684FC"/>
<path d="M103.072 35.0727L98.9783 31.6907L99.9728 30.4871L102.821 32.8399L107.827 26.3389L109.064 27.2916L103.072 35.0727Z" fill="#CCE9FF"/>
<path d="M39.7801 97.5759C39.7801 97.9711 39.1395 98.2915 38.349 98.2915H20.513C19.7227 98.2915 19.0818 97.9711 19.0818 97.5759C19.0818 97.1808 19.7225 96.8604 20.513 96.8604H38.349C39.1393 96.8604 39.7801 97.1806 39.7801 97.5759Z" fill="#CCE9FF"/>
<path d="M63.2906 108.593C63.2906 108.988 62.65 109.308 61.8595 109.308H44.0237C43.2333 109.308 42.5925 108.988 42.5925 108.593C42.5925 108.197 43.2332 107.877 44.0237 107.877H61.8596C62.65 107.877 63.2906 108.197 63.2906 108.593Z" fill="#CCE9FF"/>
<path d="M52.8873 120.608C52.8873 121.003 52.2467 121.324 51.4561 121.324H33.6204C32.83 121.324 32.1892 121.003 32.1892 120.608C32.1892 120.213 32.8298 119.893 33.6204 119.893H51.4563C52.2467 119.893 52.8873 120.213 52.8873 120.608Z" fill="#CCE9FF"/>
<path d="M91.2569 120.608C91.2569 121.003 90.6163 121.324 89.8258 121.324H71.99C71.1996 121.324 70.5588 121.003 70.5588 120.608C70.5588 120.213 71.1995 119.893 71.99 119.893H89.8259C90.6163 119.893 91.2569 120.213 91.2569 120.608Z" fill="#CCE9FF"/>
<path d="M133.709 120.608C133.709 121.003 133.068 121.324 132.277 121.324H114.442C113.651 121.324 113.01 121.003 113.01 120.608C113.01 120.213 113.651 119.893 114.442 119.893H132.278C133.068 119.893 133.709 120.213 133.709 120.608Z" fill="#CCE9FF"/>
<path d="M120.638 110.638C120.638 111.173 119.998 111.606 119.207 111.606H101.371C100.581 111.606 99.9401 111.173 99.9401 110.638C99.9401 110.103 100.581 109.67 101.371 109.67H119.207C119.998 109.67 120.638 110.103 120.638 110.638Z" fill="#CCE9FF"/>
<path d="M144.837 98.2922C144.837 98.8268 144.196 99.2602 143.406 99.2602H125.57C124.78 99.2602 124.139 98.8268 124.139 98.2922C124.139 97.7576 124.78 97.3242 125.57 97.3242H143.406C144.196 97.3242 144.837 97.7576 144.837 98.2922Z" fill="#CCE9FF"/>
<path d="M101.356 98.0599C101.356 98.7224 100.09 99.2595 98.5282 99.2595H63.2879C61.7263 99.2595 60.4603 98.7224 60.4603 98.0599C60.4603 97.3974 61.7263 96.8604 63.2879 96.8604H98.5282C100.09 96.8604 101.356 97.3974 101.356 98.0599Z" fill="#CCE9FF"/>
</svg>
