<?xml version="1.0" encoding="UTF-8"?>
<svg width="212px" height="25px" viewBox="0 0 212 25" version="1.1" xmlns="http://www.w3.org/2000/svg" xmlns:xlink="http://www.w3.org/1999/xlink">
    <title>icon</title>
    <g id="页面-1" stroke="none" stroke-width="1" fill="none" fill-rule="evenodd">
        <g id="UI-Designer" transform="translate(-1134.000000, -23.000000)">
            <g id="icon" transform="translate(1134.000000, 23.000000)">
                <g id="icon_问号" transform="translate(62.014062, 0.495312)">
                    <path d="M12.2160889,4.38101649 C10.0592393,4.38101649 8.30090878,6.04240996 8.10703467,8.15079098 L8.09895658,8.23964995 L8.09895658,8.26388421 C8.09895658,8.71625715 8.46785594,9.08515651 8.92022888,9.08515651 C9.37260182,9.08515651 9.74150118,8.71625715 9.74150118,8.26388421 L9.74150118,8.24772804 C9.88421407,7.00370246 10.9370582,6.02625379 12.2160889,6.02625379 C13.5920565,6.02625379 14.7202962,7.15180074 14.7202962,8.53046112 C14.7202962,9.90912151 13.5947492,11.0346685 12.2160889,11.0346685 C12.1918546,11.0346685 12.1676203,11.0319758 12.1460788,11.0292831 C12.1460788,11.0319758 12.1433861,11.0346685 12.1406934,11.0373612 C11.7233255,11.0750589 11.3948166,11.4278021 11.3948166,11.8559408 L11.3948166,15.0387075 C11.3948166,15.4910804 11.7637159,15.8599798 12.2160889,15.8599798 C12.6684618,15.8599798 13.0373612,15.4910804 13.0373612,15.0387075 L13.0373612,12.5964322 C14.9303265,12.2140693 16.3628408,10.5365197 16.3628408,8.53315382 C16.3601481,6.24166947 14.5021878,4.38101649 12.2160889,4.38101649 Z M11.3948166,17.1578593 C11.3948166,17.6114355 11.7625127,17.9791316 12.2160889,17.9791316 C12.669665,17.9791316 13.0373612,17.6114355 13.0373612,17.1578593 C13.0373612,16.7042831 12.669665,16.336587 12.2160889,16.336587 C11.7625127,16.336587 11.3948166,16.7042831 11.3948166,17.1578593 L11.3948166,17.1578593 Z M22.4537193,10.2268596 C22.4537193,4.580276 17.876136,0 12.2268596,0 C6.580276,0 2,4.57758331 2,10.2268596 C2,13.8404578 3.87680916,17.0043756 6.70683272,18.8219455 L11.6452373,23.7603501 C11.744867,23.8599798 11.8660384,23.9299899 11.9925951,23.964995 C12.0168294,23.973073 12.0437563,23.9784584 12.0706833,23.9838438 C12.1218445,23.9946146 12.1756984,24 12.2268596,24 C12.2780209,24 12.3291821,23.9946146 12.3776506,23.9865365 C12.383036,23.9865365 12.3857287,23.9838438 12.3911141,23.9838438 C12.4153484,23.9784584 12.4368899,23.973073 12.4584315,23.9676876 C12.471895,23.964995 12.4826658,23.9596096 12.4961292,23.9542242 C12.5203635,23.9461461 12.5472905,23.9353753 12.5715247,23.9246045 C12.595759,23.9138337 12.6199933,23.9003702 12.6442275,23.8869068 C12.6630764,23.876136 12.6819253,23.8626725 12.7034668,23.849209 C12.7411646,23.8222821 12.7761696,23.7926624 12.808482,23.7603501 L17.752272,18.8165601 C20.5796028,16.9989902 22.4537193,13.8377651 22.4537193,10.2268596 Z M16.8205991,17.4432851 L16.8205991,17.470212 C16.7559744,17.5052171 16.6940424,17.5509929 16.6374958,17.6075395 L12.2295523,22.0181757 L7.81891619,17.6102322 C7.78391114,17.5752272 7.74890609,17.5456075 7.70851565,17.5186806 L7.70851565,17.5106025 C5.27431841,15.9946146 3.64523729,13.3019185 3.64523729,10.2268596 C3.64523729,5.49309997 7.49579266,1.64523729 12.2295523,1.64523729 C16.963312,1.64523729 20.8111747,5.49579266 20.8111747,10.2268596 C20.8111747,13.2669135 19.2117132,15.9192191 16.8205991,17.4432851 Z" id="形状" fill="#888888" fill-rule="nonzero"></path>
                    <rect id="矩形" x="0" y="0" width="24" height="24"></rect>
                </g>
                <g id="user" transform="translate(126.000000, 0.000000)" fill-rule="nonzero">
                    <rect id="矩形" fill="#000000" opacity="0" x="0" y="0" width="24" height="24"></rect>
                    <path d="M12,1.75000001 C6.34999999,1.75000001 1.75000001,6.34999999 1.75000001,12 C1.75000001,17.65 6.34999999,22.25 12,22.25 C17.65,22.25 22.25,17.65 22.25,12 C22.25,6.34999999 17.65,1.75000001 12,1.75000001 Z M6.75,19 C6.75,16.1 9.10000001,13.75 12,13.75 C14.9,13.75 17.25,16.1 17.25,19 C15.8,20.1 13.95,20.75 12,20.75 C10.05,20.75 8.20000001,20.1 6.75,19 Z M9.75,10 C9.75,8.75000001 10.75,7.75000001 12,7.75000001 C13.25,7.75000001 14.25,8.75000001 14.25,10 C14.25,11.25 13.25,12.25 12,12.25 C10.75,12.25 9.75,11.25 9.75,10 Z M18.6,17.7 C18.15,15.45 16.6,13.6 14.5,12.75 C15.25,12.05 15.7,11.1 15.7,10 C15.7,7.95 14,6.25000001 11.95,6.25000001 C9.9,6.25000001 8.20000001,7.95 8.20000001,10 C8.20000001,11.1 8.65,12.05 9.40000001,12.75 C7.30000001,13.6 5.75000002,15.45 5.29999999,17.7 C3.99999998,16.15 3.15,14.2 3.15,12 C3.15,7.2 7.09999999,3.25000001 11.9,3.25000001 C16.7,3.25000001 20.75,7.2 20.75,12 C20.75,14.2 19.95,16.15 18.6,17.7 Z" id="形状" fill="#888888"></path>
                </g>
                <g id="更多icon" transform="translate(188.000000, 0.000000)">
                    <g id="更多" transform="translate(6.000000, 6.000000)" fill-rule="nonzero">
                        <rect id="矩形" fill="#000000" opacity="0" x="0" y="0" width="12" height="12"></rect>
                        <path d="M11.4,2 L0.6,2 C0.26862915,2 0,2.27789222 0,2.62068966 C0,2.96348709 0.26862915,3.24137931 0.6,3.24137931 L11.4,3.24137931 C11.7313708,3.24137931 12,2.96348709 12,2.62068966 C12,2.27789222 11.7313708,2 11.4,2 L11.4,2 Z M11.4,5.87931034 L0.6,5.87931034 C0.26862915,5.87931034 0,6.15720257 0,6.5 C0,6.84279743 0.26862915,7.12068966 0.6,7.12068966 L11.4,7.12068966 C11.7313708,7.12068966 12,6.84279743 12,6.5 C12,6.15720257 11.7313708,5.87931034 11.4,5.87931034 Z M11.4,9.75862069 L0.6,9.75862069 C0.26862915,9.75862069 0,10.0365129 0,10.3793103 C0,10.7221078 0.26862915,11 0.6,11 L11.4,11 C11.7313708,11 12,10.7221078 12,10.3793103 C12,10.0365129 11.7313708,9.75862069 11.4,9.75862069 Z" id="形状" fill="#FFFFFF"></path>
                    </g>
                    <circle id="椭圆形" stroke="#FFFFFF" stroke-width="1.5" cx="12" cy="12" r="11.25"></circle>
                </g>
                <g id="监控" transform="translate(0.000000, 1.000000)" fill-rule="nonzero">
                    <rect id="矩形" fill="#3E599F" opacity="0" x="0" y="0" width="24" height="24"></rect>
                    <path d="M22.885395,17.5485893 L22.8825028,17.5460815 L22.8796107,17.5435737 C21.6041613,15.2037618 19.6288055,14 16.999818,14 C14.3708305,14 12.3954747,15.2062696 11.1171331,17.5435737 L11.1171331,17.5460815 C10.9609556,17.8344828 10.9609556,18.1705329 11.1171331,18.4589342 C12.3954747,20.7962382 14.3708305,22 16.999818,22 C19.6288055,22 21.6041613,20.7937304 22.8825028,18.4564263 C23.0386803,18.1680251 23.0386803,17.8344828 22.885395,17.5485893 Z M18.5,20 C16.9596031,20 15.835932,19.2146597 15,17.5 C15.8334515,15.7853403 16.9596031,15 18.5,15 C20.0403969,15 21.164068,15.7853403 22,17.5 C21.1665485,19.2146597 20.0403969,20 18.5,20 Z M17,17.5 C17,18.3284271 17.6715729,19 18.5,19 C19.3284271,19 20,18.3284271 20,17.5 C20,16.6715729 19.3284271,16 18.5,16 C17.6715729,16 17,16.6715729 17,17.5 Z M1.86792453,4.97260274 L20.1320755,4.97260274 L20.1320755,11.9041096 L22,11.9041096 L22,3.87671233 C22,3.39178082 21.6290094,3 21.1698113,3 L0.830188679,3 C0.370990566,3 0,3.39178082 0,3.87671233 L0,18.1232877 C0,18.6082192 0.370990566,19 0.830188679,19 L9.96226415,19 L9.96226415,17.0273973 L1.86792453,17.0273973 L1.86792453,4.97260274 Z M17.9297549,6.92886213 L16.8526629,6.05519756 C16.7619297,5.98160081 16.6126588,5.98160081 16.5219255,6.05519756 L11.1423196,10.4235204 L8.62227565,8.37705613 C8.53154236,8.30345939 8.38227147,8.30345939 8.29153818,8.37705613 L4.06804997,11.8028659 C3.97731668,11.8764626 3.97731668,11.9975411 4.06804997,12.0711379 L5.1451419,12.9448024 C5.23587519,13.0183992 5.38514608,13.0183992 5.47587937,12.9448024 L8.45544347,10.5279803 L10.9754874,12.5744446 C11.0662207,12.6480414 11.2154916,12.6480414 11.3062248,12.5744446 L17.9297549,7.19713414 C18.023415,7.12353739 18.023415,7.00245888 17.9297549,6.92886213 L17.9297549,6.92886213 Z" id="形状" fill="#FFFFFF"></path>
                </g>
            </g>
        </g>
    </g>
</svg>