<?xml version="1.0" encoding="UTF-8"?>
<svg width="430px" height="260px" viewBox="0 0 430 260" version="1.1" xmlns="http://www.w3.org/2000/svg" xmlns:xlink="http://www.w3.org/1999/xlink">
    <title>创建项目</title>
    <g id="页面-1" stroke="none" stroke-width="1" fill="none" fill-rule="evenodd">
        <g id="UI-Framework" transform="translate(-19.000000, -152.000000)">
            <g id="打开或创建项目" transform="translate(18.000000, 84.000000)">
                <g id="创建项目" transform="translate(1.000000, 68.000000)">
                    <rect id="矩形" stroke="#DDDDDD" fill="#FFFFFF" x="0.5" y="0.5" width="429" height="259" rx="16"></rect>
                    <path d="M17,1 L413,1 C421.836556,1 429,8.163444 429,17 L429,149 L429,149 L1,149 L1,17 C1,8.163444 8.163444,1 17,1 Z" id="矩形" fill="#F8F8F8"></path>
                    <text font-family="PingFangSC-Regular, PingFang SC" font-size="16" font-weight="normal" fill="#333333">
                        <tspan x="181.985948" y="188">创建项目</tspan>
                    </text>
                    <g id="创建项目icon" transform="translate(146.000000, 6.000000)">
                        <rect id="矩形" x="0" y="0" width="136" height="136"></rect>
                        <g transform="translate(0.000000, 17.000000)" fill-rule="nonzero">
                            <path d="M133.470022,0 L27.0903037,0 C26.2466028,0 25.5621302,0.682472082 25.5621302,1.52364679 L25.5621302,39.861186 L51.3070559,39.861186 C52.7581832,39.8629459 53.9341141,41.0353558 53.9358793,42.482138 L53.9358793,74.9172932 L133.470022,74.9172932 C133.917198,74.9172932 134.341908,74.7218914 134.632026,74.382619 C134.644158,74.3694897 134.655285,74.355472 134.665314,74.3406838 C134.756536,74.2294825 134.830391,74.1051847 134.884383,73.9719945 C134.961276,73.7888419 135,73.5921867 135,73.3936377 L135,1.52364679 C135,0.681860316 134.314337,0 133.470022,0 Z" id="路径" stroke="#CDCDCD" fill="#FFFFFF"></path>
                            <rect id="矩形" fill="#CCCCCC" x="25.5621302" y="5.57894737" width="108.639053" height="1"></rect>
                            <ellipse id="椭圆形" fill="#CCCCCC" cx="29.1568047" cy="2.78947368" rx="1.19822485" ry="1.19548872"></ellipse>
                            <ellipse id="椭圆形" fill="#CCCCCC" cx="32.352071" cy="2.78947368" rx="1.19822485" ry="1.19548872"></ellipse>
                            <ellipse id="椭圆形" fill="#CCCCCC" cx="36.3461538" cy="2.78947368" rx="1.19822485" ry="1.19548872"></ellipse>
                            <path d="M107.164315,15.1428571 L52.5989986,15.1428571 C51.343349,15.1428571 50.3254438,16.2133342 50.3254438,17.5338346 C50.3254438,18.854335 51.343349,19.924812 52.5989986,19.924812 L107.164315,19.924812 C108.419965,19.924812 109.43787,18.854335 109.43787,17.5338346 C109.43787,16.2133342 108.419965,15.1428571 107.164315,15.1428571 L107.164315,15.1428571 Z M107.164315,19.5569693 L52.5989986,19.5569693 C51.5365258,19.5569693 50.6752215,18.6511811 50.6752215,17.5338346 C50.6752215,16.4164881 51.5365258,15.5106998 52.5989986,15.5106998 L107.164315,15.5106998 C108.226788,15.5106998 109.088092,16.4164881 109.088092,17.5338346 C109.088092,18.6511811 108.226788,19.5569693 107.164315,19.5569693 Z" id="形状" fill="#CCCCCC"></path>
                            <path d="M123.939463,33.4736842 L69.3741466,33.4736842 C68.1184969,33.4736842 67.1005917,34.5441613 67.1005917,35.8646617 C67.1005917,37.185162 68.1184969,38.2556391 69.3741466,38.2556391 L123.939463,38.2556391 C125.195113,38.2556391 126.213018,37.185162 126.213018,35.8646617 C126.213018,34.5441613 125.195113,33.4736842 123.939463,33.4736842 L123.939463,33.4736842 Z" id="路径" fill="#EEEEEE"></path>
                            <path d="M123.939463,42.2406015 L69.3741466,42.2406015 C68.1184969,42.2406015 67.1005917,43.3110786 67.1005917,44.6315789 C67.1005917,45.9520793 68.1184969,47.0225564 69.3741466,47.0225564 L123.939463,47.0225564 C125.195113,47.0225564 126.213018,45.9520793 126.213018,44.6315789 C126.213018,43.3110786 125.195113,42.2406015 123.939463,42.2406015 L123.939463,42.2406015 Z" id="路径" fill="#EEEEEE"></path>
                            <path d="M123.939463,51.0075188 L69.3741466,51.0075188 C68.1184969,51.0075188 67.1005917,52.0779959 67.1005917,53.3984962 C67.1005917,54.7189966 68.1184969,55.7894737 69.3741466,55.7894737 L123.939463,55.7894737 C125.195113,55.7894737 126.213018,54.7189966 126.213018,53.3984962 C126.213018,52.0779959 125.195113,51.0075188 123.939463,51.0075188 L123.939463,51.0075188 Z" id="路径" fill="#EEEEEE"></path>
                            <path d="M60.3051752,30.2857143 L35.5528983,30.2857143 C34.4474525,30.287025 33.5516327,31.1807805 33.5502959,32.283702 L33.5502959,40.141758 L33.8988704,40.141758 L33.8988704,32.283702 C33.9002688,31.3728789 34.6399905,30.634865 35.5528983,30.6334928 L60.3051752,30.6334928 C61.2183157,30.6342724 61.9583605,31.3726467 61.9591178,32.283702 L61.9591178,56.9794559 C61.9583605,57.8905112 61.2183157,58.6288855 60.3051752,58.6296651 L53.4434666,58.6296651 L53.4434666,58.9774436 L60.3051752,58.9774436 C61.4108523,58.9767223 62.3069934,58.0826081 62.3076923,56.9794559 L62.3076923,32.283702 C62.3069972,31.1805482 61.4108539,30.2864318 60.3051752,30.2857143 L60.3051752,30.2857143 Z" id="路径" fill="#CCCCCC"></path>
                            <path d="M51.3213709,39.8496241 L2.99815569,39.8496241 C1.34329109,39.8519358 0.00234200863,41.1755327 0,42.808983 L0,103.040641 C0.00234103987,104.674092 1.34329069,105.997689 2.99815569,106 L51.3213709,106 C52.9762355,105.997688 54.3171846,104.674091 54.3195266,103.040641 L54.3195266,42.808983 C54.3171836,41.1755331 52.9762351,39.8519367 51.3213709,39.8496241 Z M53.9668024,103.040641 C53.9650261,104.48204 52.781666,105.650087 51.3213709,105.65184 L2.99815569,105.65184 C1.53786065,105.650087 0.354500567,104.48204 0.352724199,103.040641 L0.352724199,42.808983 C0.354500567,41.3675845 1.53786065,40.1995373 2.99815569,40.1977839 L51.3213709,40.1977839 C52.781666,40.1995373 53.9650261,41.3675845 53.9668024,42.808983 L53.9668024,103.040641 Z" id="形状" stroke="#CDCDCD" fill="#67686D"></path>
                            <path d="M40.9033625,81.2932331 L11.8186784,81.2932331 C8.84766035,81.2782122 8.83530812,76.5275552 11.8188255,76.5112782 L40.9033625,76.5112782 C43.8722886,76.5258779 43.888378,81.2769045 40.9033625,81.2932331 Z" id="路径" fill="#CCCCCC"></path>
                            <path d="M40.9033625,90.0601504 L11.8186784,90.0601504 C8.84766035,90.0451295 8.83530812,85.2944725 11.8188255,85.2781955 L40.9033625,85.2781955 C43.8722886,85.2927952 43.888378,90.0438218 40.9033625,90.0601504 Z" id="路径" fill="#CCCCCC"></path>
                            <path d="M40.9033625,98.8270677 L11.8186784,98.8270677 C8.84766035,98.8120468 8.83530812,94.0613898 11.8188255,94.0451128 L40.9033625,94.0451128 C43.8722886,94.0597125 43.888378,98.8107391 40.9033625,98.8270677 Z" id="路径" fill="#CCCCCC"></path>
                            <path d="M52.3224852,45.4285714 C49.8960271,45.4285714 47.9289941,43.4660301 47.9289941,41.0451128 C47.9289941,38.6241954 49.8960271,36.6616541 52.3224852,36.6616541 C54.7489434,36.6616541 56.7159763,38.6241954 56.7159763,41.0451128 C56.713232,43.4648951 54.7478057,45.4258334 52.3224852,45.4285714 Z" id="路径" fill="#4F9AF4"></path>
                            <path d="M54.9340009,40.4817215 L52.9062358,40.4817215 L52.9062358,38.4205341 C52.9062358,38.3294651 52.8237029,38.2556391 52.7218935,38.2556391 C52.6200841,38.2556391 52.5375512,38.3294651 52.5375512,38.4205341 L52.5375512,40.4817215 L50.5097861,40.4817215 C50.4079766,40.4817215 50.3254438,40.5555475 50.3254438,40.6466165 C50.3254438,40.7376855 50.4079766,40.8115115 50.5097861,40.8115115 L52.5375512,40.8115115 L52.5375512,42.872699 C52.5375512,42.963768 52.6200841,43.037594 52.7218935,43.037594 C52.8237029,43.037594 52.9062358,42.963768 52.9062358,42.872699 L52.9062358,40.8115115 L54.9340009,40.8115115 C55.0358103,40.8115115 55.1183432,40.7376855 55.1183432,40.6466165 C55.1183432,40.5555475 55.0358103,40.4817215 54.9340009,40.4817215 Z" id="路径" fill="#FFFFFF"></path>
                            <path d="M40.2678051,71.7293233 L12.4540884,71.7293233 C10.8707172,71.7275174 9.58758739,70.4319487 9.58579882,68.833228 L9.58579882,53.1066216 C9.58758644,51.5079006 10.8707168,50.2123313 12.4540884,50.2105263 L40.2678051,50.2105263 C41.8511763,50.2123322 43.1343061,51.507901 43.1360947,53.1066216 L43.1360947,68.833228 C43.1343051,70.4319483 41.8511759,71.7275164 40.2678051,71.7293233 Z" id="路径" fill="#4F9AF4"></path>
                        </g>
                    </g>
                    <g id="button" transform="translate(184.166276, 212.000000)">
                        <rect id="矩形" fill="#4F9AF4" x="0" y="0" width="60" height="32" rx="2"></rect>
                        <text id="文本" font-family="PingFangSC-Regular, PingFang SC" font-size="14" font-weight="normal" line-spacing="22" fill="#FFFFFF">
                            <tspan x="16" y="20">创建</tspan>
                        </text>
                    </g>
                </g>
            </g>
        </g>
    </g>
</svg>