<?xml version="1.0" encoding="UTF-8"?>
<svg width="430px" height="260px" viewBox="0 0 430 260" version="1.1" xmlns="http://www.w3.org/2000/svg" xmlns:xlink="http://www.w3.org/1999/xlink">
    <title>已有的项目</title>
    <g id="页面-1" stroke="none" stroke-width="1" fill="none" fill-rule="evenodd">
        <g id="UI-Framework" transform="translate(-467.000000, -152.000000)">
            <g id="打开或创建项目" transform="translate(18.000000, 84.000000)">
                <g id="已有的项目" transform="translate(449.000000, 68.000000)">
                    <rect id="矩形" stroke="#DDDDDD" fill="#FFFFFF" x="0.5" y="0.5" width="429" height="259" rx="16"></rect>
                    <path d="M17,1 L413,1 C421.836556,1 429,8.163444 429,17 L429,149 L429,149 L1,149 L1,17 C1,8.163444 8.163444,1 17,1 Z" id="矩形" fill="#F8F8F8"></path>
                    <text font-family="PingFangSC-Regular, PingFang SC" font-size="16" font-weight="normal" fill="#333333">
                        <tspan x="173.985948" y="188">已有的项目</tspan>
                    </text>
                    <g id="button" transform="translate(184.166276, 212.000000)">
                        <rect id="矩形" fill="#4F9AF4" x="0" y="0" width="60" height="32" rx="2"></rect>
                        <text id="文本" font-family="PingFangSC-Regular, PingFang SC" font-size="14" font-weight="normal" line-spacing="22" fill="#FFFFFF">
                            <tspan x="16" y="20">打开</tspan>
                        </text>
                    </g>
                    <g id="创建项目icon" transform="translate(143.716628, 7.000000)">
                        <rect id="矩形" x="0" y="0" width="136" height="136"></rect>
                        <g id="已有项目icon" transform="translate(1.026698, 16.800000)" fill-rule="nonzero">
                            <circle id="a21b076b-2a02-49a5-bb32-17a8ec3aa4f0" fill="#4F9AF4" cx="125.2" cy="12.4" r="5.2"></circle>
                            <path d="M124.278717,14.4 C124.154195,14.4001982 124.032982,14.3619202 123.933357,14.2909378 L123.92718,14.2865352 L122.626375,13.3410236 C122.462473,13.2216297 122.378055,13.0282194 122.404922,12.8336486 C122.431789,12.6390778 122.565858,12.4729063 122.756628,12.3977294 C122.947397,12.3225526 123.165883,12.3497914 123.329786,12.4691853 L124.17234,13.0831156 L126.163345,10.6150002 C126.256585,10.499435 126.394321,10.4237983 126.546252,10.4047299 C126.698183,10.3856614 126.851863,10.4247233 126.973484,10.513322 L126.97365,10.5134414 L126.961293,10.5297438 L126.973986,10.5134414 C127.226952,10.6981781 127.27477,11.0426372 127.080869,11.283382 L124.739002,14.1851292 C124.629186,14.3206463 124.45921,14.3998341 124.279211,14.3993354 L124.278717,14.4 Z" id="e6e13b85-c0f0-465c-a6f6-5f502d6349d1" fill="#FFFFFF"></path>
                            <circle id="a589868e-34c5-408c-9ae2-7552629e8089" fill="#4F9AF4" cx="125.2" cy="51.6" r="5.2"></circle>
                            <path d="M124.278717,53.6 C124.154195,53.6001982 124.032982,53.5619201 123.933357,53.4909376 L123.92718,53.4865349 L122.626375,52.5410213 C122.462473,52.4216271 122.378055,52.2282164 122.404922,52.0336452 C122.431789,51.8390739 122.565858,51.6729021 122.756628,51.5977251 C122.947397,51.522548 123.165883,51.5497869 123.329786,51.6691811 L124.17234,52.2831127 L126.163345,49.8149919 C126.256587,49.6994286 126.394324,49.6237945 126.546255,49.6047286 C126.698186,49.5856628 126.851865,49.624727 126.973484,49.7133273 L126.97365,49.7134468 L126.961293,49.7297492 L126.973986,49.7134468 C127.226952,49.8981839 127.27477,50.2426438 127.080869,50.4833891 L124.739002,53.3851426 C124.629186,53.52066 124.45921,53.599848 124.279211,53.5993492 L124.278717,53.6 Z" id="e165961b-e395-421d-ab84-b3c9bf16c3b4" fill="#FFFFFF"></path>
                            <polygon id="路径" fill="#FFFFFF" points="110.4 64.8 0 64.8 0 38.4 110.4 38.4"></polygon>
                            <path d="M15.4647602,47.2 C14.8764208,47.20074 14.4,47.5586954 14.4,48 C14.4,48.4413046 14.8764208,48.79926 15.4647602,48.8 L93.3352398,48.8 C93.9235792,48.79926 94.4,48.4413046 94.4,48 C94.4,47.5586954 93.9235792,47.20074 93.3352398,47.2 L15.4647602,47.2 Z" id="路径" fill="#4F9AF4"></path>
                            <path d="M15.4820506,53.6 C14.8857095,53.5990701 14.4012601,53.9564863 14.4,54.3983133 C14.3987448,54.8401402 14.8811553,55.1990671 15.4774964,55.2 L65.3184168,55.2 C65.7046132,55.2004787 66.0617507,55.0481048 66.255036,54.8003874 C66.4483213,54.5526699 66.4483213,54.2473308 66.255036,53.9996133 C66.0617507,53.7518959 65.7046132,53.599522 65.3184168,53.6 L15.4820506,53.6 Z" id="路径" fill="#4F9AF4"></path>
                            <path d="M110.4,64.8 L0,64.8 L0,38.4 L110.4,38.4 L110.4,64.8 Z M1.81479452,62.9142857 L108.585205,62.9142857 L108.585205,40.2857143 L1.81479452,40.2857143 L1.81479452,62.9142857 Z" id="形状" fill="#E5E5E5"></path>
                            <polygon id="路径" fill="#FFFFFF" points="110.4 102.4 0 102.4 0 76 110.4 76"></polygon>
                            <path d="M15.4647602,86.4 C14.8764208,86.40074 14.4,86.7586954 14.4,87.2 C14.4,87.6413046 14.8764208,87.99926 15.4647602,88 L93.3352398,88 C93.9235792,87.99926 94.4,87.6413046 94.4,87.2 C94.4,86.7586954 93.9235792,86.40074 93.3352398,86.4 L15.4647602,86.4 Z" id="路径" fill="#E6E6E6"></path>
                            <path d="M15.4820506,92 C14.8857095,91.9990701 14.4012601,92.3564863 14.4,92.7983133 C14.3987448,93.2401402 14.8811553,93.5990671 15.4774964,93.6 L65.3184168,93.6 C65.7046132,93.6004787 66.0617507,93.4481048 66.255036,93.2003874 C66.4483213,92.9526699 66.4483213,92.6473308 66.255036,92.3996133 C66.0617507,92.1518959 65.7046132,91.999522 65.3184168,92 L15.4820506,92 Z" id="路径" fill="#E6E6E6"></path>
                            <path d="M110.4,102.4 L0,102.4 L0,76 L110.4,76 L110.4,102.4 Z M1.81479452,100.514286 L108.585205,100.514286 L108.585205,77.8857143 L1.81479452,77.8857143 L1.81479452,100.514286 Z" id="形状" fill="#E5E5E5"></path>
                            <polygon id="路径" fill="#FFFFFF" points="111.2 26.4 0.8 26.4 0.8 0 111.2 0"></polygon>
                            <path d="M17.8647602,8.8 C17.2764208,8.80074 16.8,9.15869537 16.8,9.6 C16.8,10.0413046 17.2764208,10.39926 17.8647602,10.4 L95.7352398,10.4 C96.3235792,10.39926 96.8,10.0413046 96.8,9.6 C96.8,9.15869537 96.3235792,8.80074 95.7352398,8.8 L17.8647602,8.8 Z" id="路径" fill="#4F9AF4"></path>
                            <path d="M16.2820505,14.4 C15.8962855,14.399399 15.5393899,14.551321 15.3458028,14.79854 C15.1522158,15.045759 15.1513478,15.3507168 15.3435257,15.5985385 C15.5357037,15.8463603 15.8917313,15.9993961 16.2774963,16 L66.1184168,16 C66.5046132,16.0004787 66.8617507,15.8481048 67.055036,15.6003874 C67.2483213,15.3526699 67.2483213,15.0473308 67.055036,14.7996133 C66.8617507,14.5518958 66.5046132,14.399522 66.1184168,14.4 L16.2820505,14.4 Z" id="路径" fill="#4F9AF4"></path>
                            <path d="M111.2,26.4 L0.8,26.4 L0.8,0 L111.2,0 L111.2,26.4 Z M2.61479452,24.5142857 L109.385205,24.5142857 L109.385205,1.88571429 L2.61479452,1.88571429 L2.61479452,24.5142857 Z" id="形状" fill="#E5E5E5"></path>
                            <circle id="b5ebad9a-150e-4d35-a0fa-e0e6655123db" fill="#9FA3A5" cx="125.2" cy="90" r="5.2"></circle>
                            <path d="M124.278925,92 C124.154413,92.0001992 124.033208,91.9619219 123.93359,91.89094 L123.927414,91.8865345 L122.626704,90.9410177 C122.462636,90.8216805 122.378075,90.6282 122.404903,90.4335233 C122.431732,90.2388467 122.565869,90.0725816 122.756742,89.9974144 C122.947614,89.9222472 123.166194,89.9496098 123.330069,90.0691857 L124.172562,90.6831195 L126.163421,88.2149904 C126.256657,88.0994279 126.394384,88.0237945 126.546303,88.0047287 C126.698223,87.9856628 126.85189,88.0247263 126.9735,88.1133255 L126.973667,88.1134449 L126.961311,88.1297502 L126.974003,88.1134449 C127.22695,88.2981826 127.274764,88.6426437 127.080877,88.8833898 L124.739182,91.7851558 C124.629373,91.9206726 124.459411,91.9998606 124.279425,91.9993631 L124.278925,92 Z" id="a3d97315-c3ee-404f-9bfd-8b2853817976" fill="#FFFFFF"></path>
                        </g>
                    </g>
                </g>
            </g>
        </g>
    </g>
</svg>