<?xml version="1.0" encoding="UTF-8"?>
<svg width="430px" height="260px" viewBox="0 0 430 260" version="1.1" xmlns="http://www.w3.org/2000/svg" xmlns:xlink="http://www.w3.org/1999/xlink">
    <title>项目模板</title>
    <g id="页面-1" stroke="none" stroke-width="1" fill="none" fill-rule="evenodd">
        <g id="UI-Framework" transform="translate(-915.000000, -152.000000)">
            <g id="打开或创建项目" transform="translate(18.000000, 84.000000)">
                <g id="项目模板" transform="translate(897.000000, 68.000000)">
                    <rect id="矩形" stroke="#DDDDDD" fill="#FFFFFF" x="0.5" y="0.5" width="429" height="259" rx="16"></rect>
                    <path d="M17,1 L413,1 C421.836556,1 429,8.163444 429,17 L429,149 L429,149 L1,149 L1,17 C1,8.163444 8.163444,1 17,1 Z" id="矩形" fill="#F8F8F8"></path>
                    <text font-family="PingFangSC-Regular, PingFang SC" font-size="16" font-weight="normal" fill="#333333">
                        <tspan x="181.985948" y="188">项目模板</tspan>
                    </text>
                    <g id="button" transform="translate(184.166276, 212.000000)">
                        <rect id="矩形" fill="#4F9AF4" x="0" y="0" width="60" height="32" rx="2"></rect>
                        <text id="文本" font-family="PingFangSC-Regular, PingFang SC" font-size="14" font-weight="normal" line-spacing="22" fill="#FFFFFF">
                            <tspan x="16" y="20">创建</tspan>
                        </text>
                    </g>
                    <g id="模板icon" transform="translate(146.716628, 5.000000)">
                        <rect id="矩形" x="0" y="0" width="135.773679" height="135.773679"></rect>
                        <g id="编组" transform="translate(0.226321, 16.772043)" fill-rule="nonzero">
                            <rect id="矩形" fill="#E6E6E6" x="0" y="13.6684912" width="131.217516" height="80.1884818"></rect>
                            <rect id="矩形" fill="#FFFFFF" x="3.64493099" y="22.7808187" width="123.927654" height="65.6087578"></rect>
                            <rect id="矩形" fill="#4F9AF4" x="0" y="12.7572585" width="131.217516" height="5.46739648"></rect>
                            <ellipse id="椭圆形" fill="#FFFFFF" cx="5.01178011" cy="15.4909567" rx="1.36684912" ry="1"></ellipse>
                            <ellipse id="椭圆形" fill="#FFFFFF" cx="8.6567111" cy="15.4909567" rx="1.36684912" ry="1"></ellipse>
                            <ellipse id="椭圆形" fill="#FFFFFF" cx="12.3016421" cy="15.4909567" rx="1.36684912" ry="1"></ellipse>
                            <rect id="矩形" fill="#E6E6E6" x="14.579724" y="29.1594479" width="31.8931462" height="51.9402666"></rect>
                            <rect id="矩形" fill="#4F9AF4" x="52.8514993" y="30.0706807" width="26.4257497" height="14.579724"></rect>
                            <rect id="矩形" fill="#E6E6E6" x="52.8514993" y="47.3841029" width="26.4257497" height="15.4909567"></rect>
                            <rect id="矩形" fill="#E6E6E6" x="52.8514993" y="66.5199906" width="26.4257497" height="14.579724"></rect>
                            <rect id="矩形" fill="#E6E6E6" x="84.7446455" y="29.1594479" width="31.8931462" height="22.7808187"></rect>
                            <rect id="矩形" fill="#4F9AF4" x="84.7446455" y="58.3188958" width="31.8931462" height="22.7808187"></rect>
                            <polygon id="路径" fill="#3F3D56" points="66.0201231 36.4493099 65.6087578 36.3434799 74.5864624 3.64493099 126.661352 3.64493099 126.661352 4.05690524 74.9135747 4.05690524"></polygon>
                            <path d="M131.217516,9.11232747 C128.701216,9.11232747 126.661352,7.07246349 126.661352,4.55616374 C126.661352,2.03986399 128.701216,0 131.217516,0 C133.733815,0 135.773679,2.03986399 135.773679,4.55616374 C135.770821,7.07127872 133.732631,9.1094695 131.217516,9.11232747 L131.217516,9.11232747 Z M131.217516,0.433921141 C129.550223,0.433921141 128.047102,1.43827267 127.409056,2.97865011 C126.771011,4.51902755 127.123692,6.29207897 128.302646,7.47103295 C129.4816,8.64998692 131.254652,9.00266855 132.795029,8.36462287 C134.335407,7.72657719 135.339758,6.22345644 135.339758,4.55616374 C135.337174,2.28058334 133.493096,0.436505468 131.217516,0.433921141 L131.217516,0.433921141 Z" id="形状" fill="#3F3D56"></path>
                            <circle id="椭圆形" fill="#20A0FF" cx="130.761899" cy="4.10054736" r="1.36684912"></circle>
                            <polygon id="路径" fill="#3F3D56" points="92.16916 102.058068 40.0942409 102.058068 40.0942409 101.646096 91.8420489 101.646096 100.735471 69.2536888 101.146835 69.3595182"></polygon>
                            <path d="M35.5380771,106.614231 C33.0217774,106.614231 30.9819134,104.574367 30.9819134,102.058068 C30.9819134,99.541768 33.0217774,97.501904 35.5380771,97.501904 C38.0543769,97.501904 40.0942409,99.541768 40.0942409,102.058068 C40.0913829,104.573183 38.0531921,106.611373 35.5380771,106.614231 Z M35.5380771,97.9358251 C33.8707844,97.9358251 32.3676637,98.9401766 31.729618,100.480554 C31.0915723,102.020932 31.444254,103.793983 32.6232079,104.972937 C33.8021619,106.151891 35.5752133,106.504573 37.1155908,105.866527 C38.6559682,105.228481 39.6603197,103.72536 39.6603197,102.058068 C39.6577354,99.7824873 37.8136575,97.9384094 35.5380771,97.9358251 L35.5380771,97.9358251 Z" id="形状" fill="#3F3D56"></path>
                            <circle id="椭圆形" fill="#20A0FF" cx="35.0824608" cy="102.513684" r="1.36684912"></circle>
                        </g>
                    </g>
                    <rect id="矩形" stroke="#DDDDDD" fill="#DFDFDF" opacity="0.496434411" x="0.5" y="0.5" width="429" height="259" rx="16"></rect>
                </g>
            </g>
        </g>
    </g>
</svg>