<?xml version="1.0" encoding="UTF-8"?>
<svg width="430px" height="152px" viewBox="0 0 430 152" version="1.1" xmlns="http://www.w3.org/2000/svg" xmlns:xlink="http://www.w3.org/1999/xlink">
    <title>数据导出</title>
    <g id="页面-1" stroke="none" stroke-width="1" fill="none" fill-rule="evenodd">
        <g id="UI-Framework" transform="translate(-19.000000, -504.000000)">
            <g id="新手入门" transform="translate(0.000000, 438.000000)">
                <g id="数据导出" transform="translate(19.000000, 66.000000)">
                    <rect id="矩形" stroke="#DDDDDD" fill="#FFFFFF" x="0.5" y="0.5" width="429" height="151" rx="16"></rect>
                    <text font-family="PingFangSC-Regular, PingFang SC" font-size="16" font-weight="normal" fill="#333333">
                        <tspan x="158.059361" y="51">数据导出</tspan>
                    </text>
                    <text id="常见功能快速上手" font-family="PingFangSC-Regular, PingFang SC" font-size="14" font-weight="normal" fill="#666666">
                        <tspan x="158.059361" y="75">常见功能快速上手</tspan>
                    </text>
                    <text id="查看-&gt;" font-family="PingFangSC-Regular, PingFang SC" font-size="16" font-weight="normal" fill="#4F9AF4">
                        <tspan x="157.077626" y="110">查看 &gt;</tspan>
                    </text>
                    <rect id="矩形" fill="#EBC327" x="38.2876712" y="37" width="73.630137" height="70" rx="22"></rect>
                    <g id="导出" transform="translate(63.000000, 57.000000)" fill-rule="nonzero">
                        <rect id="矩形" fill="#000000" opacity="0" x="0" y="0" width="30" height="30"></rect>
                        <path d="M17.5,30 L1.66666667,30 C0.75,30 0,29.25 0,28.3333333 L0,1.66666667 C0,0.75 0.75,0 1.66666667,0 L20,0 C21.4166667,0 22.5,1.08333334 22.5,2.5 C22.5,3.91666664 21.4166667,5 20,5 L6.66666668,5 C5.75000001,5 5,5.75000001 5,6.66666668 L5,23.3333333 C5,24.25 5.75000001,25 6.66666668,25 L20,25 C21.4166667,25 22.5,26.0833333 22.5,27.5 C22.5,28.9166667 21.4166667,30 20,30 L17.5,30 L17.5,30 Z M6.75,8.33333332 L14.1666667,8.33333332 L14.1666667,9.99999999 L6.75,9.99999999 L6.75,8.33333332 Z M6.75,11.6666667 L14.1666667,11.6666667 L14.1666667,13.3333333 L6.75,13.3333333 L6.75,11.6666667 Z M6.75,15 L14.1666667,15 L14.1666667,21.6666667 L6.75,21.6666667 L6.75,15 Z" id="形状" fill="#FFFFFF"></path>
                        <path d="M29.3333333,13.5 L25,9.58333333 C24.4166667,9 23.4166667,9.08333332 22.9166667,9.66666668 C22.3333333,10.25 22.4166667,11.1666667 23,11.75 L25.0833333,13.5833333 L17.4166667,13.5833333 C16.5833333,13.5833333 15.9166667,14.25 15.9166667,15 C15.9166667,15.8333333 16.5833333,16.4166667 17.4166667,16.4166667 L25,16.4166667 L23,18.3333333 C22.4166667,18.9166667 22.3333333,19.8333333 22.9166667,20.4166667 C23.25,20.75 23.5833333,20.9166667 24,20.9166667 C24.3333333,20.9166667 24.75,20.75 25,20.5 L29.3333333,16.5833333 C29.75,16.1666667 30,15.6666667 30,15.0833333 C30,14.4166666 29.75,13.9166667 29.3333333,13.5 Z" id="路径" fill="#FFFFFF"></path>
                    </g>
                    <rect id="矩形" stroke="#DDDDDD" fill="#DFDFDF" opacity="0.5" x="0.5" y="0.5" width="429" height="151" rx="16"></rect>
                </g>
            </g>
        </g>
    </g>
</svg>