<?xml version="1.0" encoding="UTF-8"?>
<svg width="430px" height="152px" viewBox="0 0 430 152" version="1.1" xmlns="http://www.w3.org/2000/svg" xmlns:xlink="http://www.w3.org/1999/xlink">
    <title>数据收集</title>
    <g id="页面-1" stroke="none" stroke-width="1" fill="none" fill-rule="evenodd">
        <g id="UI-Framework" transform="translate(-468.000000, -504.000000)">
            <g id="新手入门" transform="translate(0.000000, 438.000000)">
                <g id="数据收集" transform="translate(468.000000, 66.000000)">
                    <rect id="矩形" stroke="#DDDDDD" fill="#FFFFFF" x="0.5" y="0.5" width="429" height="151" rx="16"></rect>
                    <text id="业务数据收集" font-family="PingFangSC-Regular, PingFang SC" font-size="16" font-weight="normal" fill="#333333">
                        <tspan x="158.059361" y="51">业务数据收集</tspan>
                    </text>
                    <text id="核心功能" font-family="PingFangSC-Regular, PingFang SC" font-size="14" font-weight="normal" fill="#666666">
                        <tspan x="158.059361" y="75">核心功能</tspan>
                    </text>
                    <text id="查看-&gt;" font-family="PingFangSC-Regular, PingFang SC" font-size="16" font-weight="normal" fill="#4F9AF4">
                        <tspan x="157.077626" y="110">查看 &gt;</tspan>
                    </text>
                    <rect id="矩形" fill="#00BCD4" x="38.2876712" y="37" width="73.630137" height="70" rx="22"></rect>
                    <g id="收集箱,箱子,文件箱,盒" transform="translate(59.000000, 57.000000)" fill="#FFFFFF" fill-rule="nonzero">
                        <rect id="矩形" opacity="0" x="0" y="0" width="30" height="30"></rect>
                        <path d="M28.7988281,13.3417969 C26.6367188,12.0439453 25.3125,9.70605469 25.3125,7.18066406 L25.3125,0.9375 C25.3125,0.418945312 24.8935547,0 24.375,0 L5.625,0 C5.10644531,0 4.6875,0.418945312 4.6875,0.9375 L4.6875,7.18359375 C4.6875,9.70605469 3.36328125,12.0439453 1.20117188,13.3447266 C0.829101562,13.5644531 0.52734375,13.8779297 0.322265625,14.2441406 C0.114257812,14.6103516 0,15.0292969 0,15.4628906 L0,28.125 C0,29.1591797 0.840820312,30 1.875,30 L28.125,30 C29.1591797,30 30,29.1591797 30,28.125 L30,15.4628906 C30,14.5927734 29.5458984,13.7900391 28.7988281,13.3417969 Z M4.1953125,13.2802734 C5.69238281,11.6308594 6.5625,9.45410156 6.5625,7.18359375 L6.5625,2.34375 C6.5625,2.0859375 6.7734375,1.875 7.03125,1.875 L22.96875,1.875 C23.2265625,1.875 23.4375,2.0859375 23.4375,2.34375 L23.4375,7.18359375 C23.4375,9.45703125 24.3076172,11.6337891 25.8046875,13.2802734 C26.0771484,13.5820312 25.8603516,14.0625 25.4560547,14.0625 L21.7998047,14.0625 C21.5976562,14.0625 21.4189453,14.1914062 21.3544922,14.3818359 L20.8359375,15.9375 L20.4257812,17.1708984 C20.2998047,17.5546875 19.9394531,17.8125 19.5351562,17.8125 L10.4648438,17.8125 C10.0605469,17.8125 9.703125,17.5546875 9.57421875,17.1708984 L9.1640625,15.9375 L8.64550781,14.3818359 C8.58105469,14.1914062 8.40234375,14.0625 8.20019531,14.0625 L4.546875,14.0625 C4.13964844,14.0625 3.92285156,13.5820312 4.1953125,13.2802734 Z" id="形状"></path>
                        <path d="M19.6875,5.65429688 L10.3125,5.65429688 C9.79394531,5.65429688 9.375,5.23535156 9.375,4.71679688 C9.375,4.19824219 9.79394531,3.77929688 10.3125,3.77929688 L19.6875,3.77929688 C20.2060547,3.77929688 20.625,4.19824219 20.625,4.71679688 C20.625,5.23535156 20.2060547,5.65429688 19.6875,5.65429688 Z M19.6875,9.375 L10.3125,9.375 C9.79394531,9.375 9.375,8.95605469 9.375,8.4375 C9.375,7.91894531 9.79394531,7.5 10.3125,7.5 L19.6875,7.5 C20.2060547,7.5 20.625,7.91894531 20.625,8.4375 C20.625,8.95605469 20.2060547,9.375 19.6875,9.375 Z M19.6875,13.125 L10.3125,13.125 C9.79394531,13.125 9.375,12.7060547 9.375,12.1875 C9.375,11.6689453 9.79394531,11.25 10.3125,11.25 L19.6875,11.25 C20.2060547,11.25 20.625,11.6689453 20.625,12.1875 C20.625,12.7060547 20.2060547,13.125 19.6875,13.125 Z" id="形状"></path>
                    </g>
                    <rect id="矩形" stroke="#DDDDDD" fill="#DFDFDF" opacity="0.5" x="0.5" y="0.5" width="429" height="151" rx="16"></rect>
                </g>
            </g>
        </g>
    </g>
</svg>