<?xml version="1.0" encoding="UTF-8"?>
<svg width="430px" height="152px" viewBox="0 0 430 152" version="1.1" xmlns="http://www.w3.org/2000/svg" xmlns:xlink="http://www.w3.org/1999/xlink">
    <title>页面分类</title>
    <g id="页面-1" stroke="none" stroke-width="1" fill="none" fill-rule="evenodd">
        <g id="UI-Framework" transform="translate(-916.000000, -504.000000)">
            <g id="新手入门" transform="translate(0.000000, 438.000000)">
                <g id="页面分类" transform="translate(916.000000, 66.000000)">
                    <rect id="矩形" stroke="#DDDDDD" fill="#FFFFFF" x="0.5" y="0.5" width="429" height="151" rx="16"></rect>
                    <text font-family="PingFangSC-Regular, PingFang SC" font-size="16" font-weight="normal" fill="#333333">
                        <tspan x="158.059361" y="51">页面分类</tspan>
                    </text>
                    <text id="一分钟了解各类型页面" font-family="PingFangSC-Regular, PingFang SC" font-size="14" font-weight="normal" fill="#666666">
                        <tspan x="158.059361" y="75">一分钟了解各类型页面</tspan>
                    </text>
                    <text id="查看-&gt;" font-family="PingFangSC-Regular, PingFang SC" font-size="16" font-weight="normal" fill="#4F9AF4">
                        <tspan x="157.077626" y="110">查看 &gt;</tspan>
                    </text>
                    <rect id="矩形" fill="#009F72" x="38.2876712" y="37" width="73.630137" height="70" rx="22"></rect>
                    <g id="分类" transform="translate(60.000000, 58.000000)" fill-rule="nonzero">
                        <rect id="矩形" fill="#000000" opacity="0" x="0" y="0" width="30" height="30"></rect>
                        <path d="M12.2226562,2.56054687 L3.88769531,2.56054687 C3.12011719,2.56054687 2.49902344,3.18164062 2.49902344,3.94921875 L2.49902344,12.28125 C2.49902344,13.0488281 3.12011719,13.6699219 3.88769531,13.6699219 L12.2197266,13.6699219 C12.9873047,13.6699219 13.6084088,13.0488281 13.6084088,12.28125 L13.6084088,3.94921875 C13.6113281,3.18164062 12.9902344,2.56054687 12.2226562,2.56054687 Z M12.2226562,16.4501953 L3.88769531,16.4501953 C3.12011719,16.4501953 2.49902344,17.0712891 2.49902344,17.8388672 L2.49902344,26.1708984 C2.49902344,26.9384766 3.12011719,27.5595703 3.88769531,27.5595703 L12.2197266,27.5595703 C12.9873047,27.5595703 13.6084088,26.9384766 13.6084088,26.1708984 L13.6084088,17.8388672 C13.6113281,17.0712891 12.9902344,16.4501953 12.2226562,16.4501953 Z M26.1123047,16.4501953 L17.7773438,16.4501953 C17.0097656,16.4501953 16.3886719,17.0712891 16.3886719,17.8388672 L16.3886719,26.1708984 C16.3886719,26.9384766 17.0097656,27.5595703 17.7773438,27.5595703 L26.109375,27.5595703 C26.8769531,27.5595703 27.4980571,26.9384766 27.4980571,26.1708984 L27.4980571,17.8388672 C27.5009766,17.0712891 26.8769531,16.4501953 26.1123047,16.4501953 Z" id="形状" fill="#FFFFFF"></path>
                        <path d="M24.7207031,10.8339844 C24.7207031,10.8662109 24.6943359,10.8925781 24.6621094,10.8925781 L19.2246094,10.8925781 C19.1923828,10.8925781 19.1660156,10.8662109 19.1660156,10.8339844 L19.1660156,5.39648437 C19.1660156,5.36425781 19.1923828,5.33789062 19.2246094,5.33789062 L24.6621094,5.33789062 C24.6943359,5.33789062 24.7207031,5.36425781 24.7207031,5.39648437 L24.7207031,10.8339844 L24.7207031,10.8339844 Z M26.1123047,2.56054687 L17.7773437,2.56054687 C17.0097656,2.56054687 16.3886719,3.18164062 16.3886719,3.94921875 L16.3886719,12.28125 C16.3886719,13.0488281 17.0097656,13.6699219 17.7773437,13.6699219 L26.109375,13.6699219 C26.8769531,13.6699219 27.4980571,13.0488281 27.4980571,12.28125 L27.4980571,3.94921875 C27.5009766,3.18164062 26.8769531,2.56054687 26.1123047,2.56054687 Z" id="形状" fill="#FFFFFF"></path>
                    </g>
                    <rect id="矩形" stroke="#DDDDDD" fill="#DFDFDF" opacity="0.5" x="0.5" y="0.5" width="429" height="151" rx="16"></rect>
                </g>
            </g>
        </g>
    </g>
</svg>